<?xml version="1.0" encoding="UTF-8" standalone="no"?>
<!DOCTYPE svg PUBLIC "-//W3C//DTD SVG 1.1//EN"
 "http://www.w3.org/Graphics/SVG/1.1/DTD/svg11.dtd">
<!-- Generated by graphviz version 8.0.5 (20230430.1635)
 -->
<!-- Pages: 1 -->
<svg width="713pt" height="476pt"
 viewBox="0.00 0.00 713.25 476.00" xmlns="http://www.w3.org/2000/svg" xmlns:xlink="http://www.w3.org/1999/xlink">
<g id="graph0" class="graph" transform="scale(1 1) rotate(0) translate(4 472)">
<polygon fill="white" stroke="none" points="-4,4 -4,-472 709.25,-472 709.25,4 -4,4"/>
<!-- [root] google_compute_firewall.firewall (expand) -->
<g id="node1" class="node">
<title>[root] google_compute_firewall.firewall (expand)</title>
<polygon fill="none" stroke="black" points="201.25,-252 0,-252 0,-216 201.25,-216 201.25,-252"/>
<text text-anchor="middle" x="100.62" y="-228.95" font-family="Times,serif" font-size="14.00">google_compute_firewall.firewall</text>
</g>
<!-- [root] google_compute_network.vpc_network (expand) -->
<g id="node3" class="node">
<title>[root] google_compute_network.vpc_network (expand)</title>
<polygon fill="none" stroke="black" points="456.62,-180 224.62,-180 224.62,-144 456.62,-144 456.62,-180"/>
<text text-anchor="middle" x="340.62" y="-156.95" font-family="Times,serif" font-size="14.00">google_compute_network.vpc_network</text>
</g>
<!-- [root] google_compute_firewall.firewall (expand)&#45;&gt;[root] google_compute_network.vpc_network (expand) -->
<g id="edge1" class="edge">
<title>[root] google_compute_firewall.firewall (expand)&#45;&gt;[root] google_compute_network.vpc_network (expand)</title>
<path fill="none" stroke="black" d="M160.57,-215.52C194.06,-205.75 235.95,-193.53 270.9,-183.34"/>
<polygon fill="black" stroke="black" points="271.41,-186.54 280.03,-180.38 269.45,-179.82 271.41,-186.54"/>
</g>
<!-- [root] google_compute_instance.vm_instance (expand) -->
<g id="node2" class="node">
<title>[root] google_compute_instance.vm_instance (expand)</title>
<polygon fill="none" stroke="black" points="455.88,-324 225.38,-324 225.38,-288 455.88,-288 455.88,-324"/>
<text text-anchor="middle" x="340.62" y="-300.95" font-family="Times,serif" font-size="14.00">google_compute_instance.vm_instance</text>
</g>
<!-- [root] google_compute_subnetwork.vpc_subnet (expand) -->
<g id="node6" class="node">
<title>[root] google_compute_subnetwork.vpc_subnet (expand)</title>
<polygon fill="none" stroke="black" points="461.5,-252 219.75,-252 219.75,-216 461.5,-216 461.5,-252"/>
<text text-anchor="middle" x="340.62" y="-228.95" font-family="Times,serif" font-size="14.00">google_compute_subnetwork.vpc_subnet</text>
</g>
<!-- [root] google_compute_instance.vm_instance (expand)&#45;&gt;[root] google_compute_subnetwork.vpc_subnet (expand) -->
<g id="edge2" class="edge">
<title>[root] google_compute_instance.vm_instance (expand)&#45;&gt;[root] google_compute_subnetwork.vpc_subnet (expand)</title>
<path fill="none" stroke="black" d="M340.62,-287.7C340.62,-280.24 340.62,-271.32 340.62,-262.97"/>
<polygon fill="black" stroke="black" points="344.13,-263.1 340.62,-253.1 337.13,-263.1 344.13,-263.1"/>
</g>
<!-- [root] provider[&quot;registry.terraform.io/hashicorp/google&quot;] -->
<g id="node7" class="node">
<title>[root] provider[&quot;registry.terraform.io/hashicorp/google&quot;]</title>
<polygon fill="none" stroke="black" points="340.62,-108 60.99,-90 340.62,-72 620.26,-90 340.62,-108"/>
<text text-anchor="middle" x="340.62" y="-84.95" font-family="Times,serif" font-size="14.00">provider[&quot;registry.terraform.io/hashicorp/google&quot;]</text>
</g>
<!-- [root] google_compute_network.vpc_network (expand)&#45;&gt;[root] provider[&quot;registry.terraform.io/hashicorp/google&quot;] -->
<g id="edge3" class="edge">
<title>[root] google_compute_network.vpc_network (expand)&#45;&gt;[root] provider[&quot;registry.terraform.io/hashicorp/google&quot;]</title>
<path fill="none" stroke="black" d="M340.62,-143.7C340.62,-136.24 340.62,-127.32 340.62,-118.97"/>
<polygon fill="black" stroke="black" points="344.13,-119.1 340.62,-109.1 337.13,-119.1 344.13,-119.1"/>
</g>
<!-- [root] google_compute_router.default_router (expand) -->
<g id="node4" class="node">
<title>[root] google_compute_router.default_router (expand)</title>
<polygon fill="none" stroke="black" points="705.25,-252 480,-252 480,-216 705.25,-216 705.25,-252"/>
<text text-anchor="middle" x="592.62" y="-228.95" font-family="Times,serif" font-size="14.00">google_compute_router.default_router</text>
</g>
<!-- [root] google_compute_router.default_router (expand)&#45;&gt;[root] google_compute_network.vpc_network (expand) -->
<g id="edge4" class="edge">
<title>[root] google_compute_router.default_router (expand)&#45;&gt;[root] google_compute_network.vpc_network (expand)</title>
<path fill="none" stroke="black" d="M529.68,-215.52C494.37,-205.71 450.16,-193.43 413.37,-183.21"/>
<polygon fill="black" stroke="black" points="414.77,-179.69 404.2,-180.38 412.9,-186.43 414.77,-179.69"/>
</g>
<!-- [root] google_compute_router_nat.router_nat (expand) -->
<g id="node5" class="node">
<title>[root] google_compute_router_nat.router_nat (expand)</title>
<polygon fill="none" stroke="black" points="703.75,-324 475.5,-324 475.5,-288 703.75,-288 703.75,-324"/>
<text text-anchor="middle" x="589.62" y="-300.95" font-family="Times,serif" font-size="14.00">google_compute_router_nat.router_nat</text>
</g>
<!-- [root] google_compute_router_nat.router_nat (expand)&#45;&gt;[root] google_compute_router.default_router (expand) -->
<g id="edge5" class="edge">
<title>[root] google_compute_router_nat.router_nat (expand)&#45;&gt;[root] google_compute_router.default_router (expand)</title>
<path fill="none" stroke="black" d="M590.37,-287.7C590.69,-280.24 591.07,-271.32 591.43,-262.97"/>
<polygon fill="black" stroke="black" points="594.96,-263.25 591.89,-253.1 587.97,-262.95 594.96,-263.25"/>
</g>
<!-- [root] google_compute_subnetwork.vpc_subnet (expand)&#45;&gt;[root] google_compute_network.vpc_network (expand) -->
<g id="edge6" class="edge">
<title>[root] google_compute_subnetwork.vpc_subnet (expand)&#45;&gt;[root] google_compute_network.vpc_network (expand)</title>
<path fill="none" stroke="black" d="M340.62,-215.7C340.62,-208.24 340.62,-199.32 340.62,-190.97"/>
<polygon fill="black" stroke="black" points="344.13,-191.1 340.62,-181.1 337.13,-191.1 344.13,-191.1"/>
</g>
<!-- [root] var.project -->
<g id="node8" class="node">
<title>[root] var.project</title>
<polygon fill="none" stroke="black" points="281.5,-36 213.75,-36 213.75,0 287.5,0 287.5,-30 281.5,-36"/>
<polyline fill="none" stroke="black" points="281.5,-36 281.5,-30"/>
<polyline fill="none" stroke="black" points="287.5,-30 281.5,-30"/>
<text text-anchor="middle" x="250.62" y="-12.95" font-family="Times,serif" font-size="14.00">var.project</text>
</g>
<!-- [root] provider[&quot;registry.terraform.io/hashicorp/google&quot;]&#45;&gt;[root] var.project -->
<g id="edge10" class="edge">
<title>[root] provider[&quot;registry.terraform.io/hashicorp/google&quot;]&#45;&gt;[root] var.project</title>
<path fill="none" stroke="black" d="M320.2,-73.12C308.74,-64.2 294.21,-52.9 281.4,-42.93"/>
<polygon fill="black" stroke="black" points="283.9,-39.67 273.86,-36.29 279.6,-45.19 283.9,-39.67"/>
</g>
<!-- [root] var.region -->
<g id="node9" class="node">
<title>[root] var.region</title>
<polygon fill="none" stroke="black" points="370,-36 305.25,-36 305.25,0 376,0 376,-30 370,-36"/>
<polyline fill="none" stroke="black" points="370,-36 370,-30"/>
<polyline fill="none" stroke="black" points="376,-30 370,-30"/>
<text text-anchor="middle" x="340.62" y="-12.95" font-family="Times,serif" font-size="14.00">var.region</text>
</g>
<!-- [root] provider[&quot;registry.terraform.io/hashicorp/google&quot;]&#45;&gt;[root] var.region -->
<g id="edge11" class="edge">
<title>[root] provider[&quot;registry.terraform.io/hashicorp/google&quot;]&#45;&gt;[root] var.region</title>
<path fill="none" stroke="black" d="M340.62,-71.7C340.62,-64.24 340.62,-55.32 340.62,-46.97"/>
<polygon fill="black" stroke="black" points="344.13,-47.1 340.62,-37.1 337.13,-47.1 344.13,-47.1"/>
</g>
<!-- [root] var.zone -->
<g id="node10" class="node">
<title>[root] var.zone</title>
<polygon fill="none" stroke="black" points="449.5,-36 393.75,-36 393.75,0 455.5,0 455.5,-30 449.5,-36"/>
<polyline fill="none" stroke="black" points="449.5,-36 449.5,-30"/>
<polyline fill="none" stroke="black" points="455.5,-30 449.5,-30"/>
<text text-anchor="middle" x="424.62" y="-12.95" font-family="Times,serif" font-size="14.00">var.zone</text>
</g>
<!-- [root] provider[&quot;registry.terraform.io/hashicorp/google&quot;]&#45;&gt;[root] var.zone -->
<g id="edge12" class="edge">
<title>[root] provider[&quot;registry.terraform.io/hashicorp/google&quot;]&#45;&gt;[root] var.zone</title>
<path fill="none" stroke="black" d="M360.11,-72.76C370.64,-63.99 383.85,-52.98 395.57,-43.21"/>
<polygon fill="black" stroke="black" points="397.34,-45.46 402.78,-36.37 392.86,-40.08 397.34,-45.46"/>
</g>
<!-- [root] provider[&quot;registry.terraform.io/hashicorp/google&quot;] (close) -->
<g id="node11" class="node">
<title>[root] provider[&quot;registry.terraform.io/hashicorp/google&quot;] (close)</title>
<ellipse fill="none" stroke="black" cx="340.62" cy="-378" rx="248.91" ry="18"/>
<text text-anchor="middle" x="340.62" y="-372.95" font-family="Times,serif" font-size="14.00">[root] provider[&quot;registry.terraform.io/hashicorp/google&quot;] (close)</text>
</g>
<!-- [root] provider[&quot;registry.terraform.io/hashicorp/google&quot;] (close)&#45;&gt;[root] google_compute_firewall.firewall (expand) -->
<g id="edge7" class="edge">
<title>[root] provider[&quot;registry.terraform.io/hashicorp/google&quot;] (close)&#45;&gt;[root] google_compute_firewall.firewall (expand)</title>
<path fill="none" stroke="black" d="M293.06,-359.91C269.4,-350.61 240.78,-338.12 216.62,-324 184.37,-305.14 150.86,-278.54 128.2,-259.34"/>
<polygon fill="black" stroke="black" points="130.94,-256.23 121.07,-252.38 126.39,-261.54 130.94,-256.23"/>
</g>
<!-- [root] provider[&quot;registry.terraform.io/hashicorp/google&quot;] (close)&#45;&gt;[root] google_compute_instance.vm_instance (expand) -->
<g id="edge8" class="edge">
<title>[root] provider[&quot;registry.terraform.io/hashicorp/google&quot;] (close)&#45;&gt;[root] google_compute_instance.vm_instance (expand)</title>
<path fill="none" stroke="black" d="M340.62,-359.7C340.62,-352.24 340.62,-343.32 340.62,-334.97"/>
<polygon fill="black" stroke="black" points="344.13,-335.1 340.62,-325.1 337.13,-335.1 344.13,-335.1"/>
</g>
<!-- [root] provider[&quot;registry.terraform.io/hashicorp/google&quot;] (close)&#45;&gt;[root] google_compute_router_nat.router_nat (expand) -->
<g id="edge9" class="edge">
<title>[root] provider[&quot;registry.terraform.io/hashicorp/google&quot;] (close)&#45;&gt;[root] google_compute_router_nat.router_nat (expand)</title>
<path fill="none" stroke="black" d="M400.9,-360.05C436.03,-350.18 480.55,-337.66 517.52,-327.27"/>
<polygon fill="black" stroke="black" points="518.06,-330.47 526.74,-324.4 516.17,-323.73 518.06,-330.47"/>
</g>
<!-- [root] root -->
<g id="node12" class="node">
<title>[root] root</title>
<ellipse fill="none" stroke="black" cx="340.62" cy="-450" rx="49.3" ry="18"/>
<text text-anchor="middle" x="340.62" y="-444.95" font-family="Times,serif" font-size="14.00">[root] root</text>
</g>
<!-- [root] root&#45;&gt;[root] provider[&quot;registry.terraform.io/hashicorp/google&quot;] (close) -->
<g id="edge13" class="edge">
<title>[root] root&#45;&gt;[root] provider[&quot;registry.terraform.io/hashicorp/google&quot;] (close)</title>
<path fill="none" stroke="black" d="M340.62,-431.7C340.62,-424.24 340.62,-415.32 340.62,-406.97"/>
<polygon fill="black" stroke="black" points="344.13,-407.1 340.62,-397.1 337.13,-407.1 344.13,-407.1"/>
</g>
</g>
</svg>
